# xmcd CD database file
#
# Track frame offsets:
#	150
#	19312
#	45213
#	67680
#	95728
#	112705
#	145861
#	166068
#	183182
#	202489
#
# Disc length: 2944 seconds
#
# Revision: 0
# Processed by: cddbd v1.5.2PL0 Copyright (c) Steve Scherf et al.
# Submitted via: CDex 1.77
#
DISCID=7c0b7e0a
DTITLE=Blueprint - Feel The Warmth
DYEAR=1900
DGENRE=Jazz
TTITLE0=Ssh, Don't Tell Claire
TTITLE1=Promises
TTITLE2=Gentleman Stan
TTITLE3=Gabriela's Song
TTITLE4=African Nights
TTITLE5=Yet Another Autumn
TTITLE6=Comin' Home
TTITLE7=Never Too Soon
TTITLE8=Feel The Warmth
TTITLE9=Spiral
EXTD=
EXTT0=
EXTT1=
EXTT2=
EXTT3=
EXTT4=
EXTT5=
EXTT6=
EXTT7=
EXTT8=
EXTT9=
PLAYORDER=
